<svg height="512" viewBox="0 0 60 58" width="512" xmlns="http://www.w3.org/2000/svg"><g id="Page-1" fill="none" fill-rule="evenodd"><g id="033---No-Wifi-Connection" fill-rule="nonzero"><path id="Shape" d="m30 57.813c-.9078282.0029106-1.7678784-.4065145-2.338-1.113l-27.441-34.073c-.34259477-.4304538-.27314604-1.0567975.15542487-1.4017449.42857091-.3449473 1.05528561-.2789302 1.40257513.1477449l27.44 34.069c.1976333.224588.4823366.3532946.7815.3532946s.5838667-.1287066.7815-.3532946l27.439-34.069c.3472895-.4266751.9740042-.4926922 1.4025751-.1477449.4285709.3449474.4980197.9712911.1554249 1.4017449l-27.44 34.073c-.5704337.7066423-1.4308544 1.1160686-2.339 1.113z" fill="#bdc3c7"/><g fill="#ff5364"><path id="Shape" d="m16.44 11.92c-3.4657726 1.5834284-6.62436619 3.7670221-9.33 6.45-1.17912795 1.1653208-3.07967916 1.1541279-4.24499997-.025-1.16532081-1.179128-1.15412794-3.0796792.02499997-4.245 2.8414385-2.8162898 6.10798659-5.16833937 9.68-6.97l3.81-1.67c14.1009085-5.29536108 29.993342-1.92412058 40.73 8.64 1.1791279 1.1653208 1.1903207 3.065872.0249999 4.2449999-1.1653208 1.179128-3.065872 1.1903209-4.2449999.0250001-8.5457963-8.42030992-21.0258721-11.46638567-32.49-7.93z"/><path id="Shape" d="m23.69 20.89c-3.5604303 1.033429-6.8056629 2.9413782-9.44 5.55-.7517573.7986728-1.8794499 1.1234269-2.9408423.8469067-1.0613924-.2765201-1.88727502-1.1102309-2.15376994-2.1741848-.26649492-1.0639538.06888306-2.1885326.87461224-2.9327219 2.7518068-2.7306002 6.0414708-4.859006 9.66-6.25l4.14-1.25c9.4215723-2.1004576 19.2652701.7238627 26.14 7.5.8627584.8557116 1.1241063 2.1473566.6618782 3.2711624s-1.5567267 1.8577829-2.7718782 1.8588376c-.7912223.0030468-1.5508642-.3101705-2.11-.87-4.6408516-4.5806489-11.0520078-6.9040081-17.55-6.36z"/><path id="Shape" d="m32 31.16c-3.8686331-.6321426-7.806678.6198585-10.6 3.37-1.1791279 1.1680822-3.0819177 1.1591279-4.2499999-.0200001-1.1680823-1.1791279-1.159128-3.0819176.0199999-4.2499999 2.7267528-2.6958948 6.2385917-4.4570663 10.03-5.03l5.1-.07c3.9775938.4881219 7.6809487 2.2817696 10.53 5.1 1.1704314 1.1678058 1.1793625 3.0612046.02 4.24-.5635613.5739505-1.33564.8950486-2.14.89h-.14z"/><circle id="Oval" cx="30" cy="43" r="5"/></g><path id="Shape" d="m49 51c-.6046284.0004173-1.1769911-.272714-1.557-.743l-38-47c-.66491624-.86050766-.52042374-2.09460639.3252864-2.77824475.8457101-.68363836 2.0826823-.56626061 2.7847136.26424475l38 47c.4840091.5989914.5811109 1.4226699.2496625 2.1177939-.3314485.6951241-1.0325622 1.1381981-1.8026625 1.1392061z" fill="#c03a2b"/></g></g></svg>